<svg xmlns="http://www.w3.org/2000/svg" width="389" height="305" opacity=".9" xmlns:v="https://vecta.io/nano"><g fill="#21afc8"><circle cx="2.5" cy="2.5" r="2.5" transform="matrix(0 1 -1 0 5 0)"/><circle cx="2.5" cy="2.5" r="2.5" transform="matrix(0 1 -1 0 17 0)"/><circle cx="2.5" cy="2.5" r="2.5" transform="matrix(0 1 -1 0 29 0)"/><circle cx="2.5" cy="2.5" r="2.5" transform="matrix(0 1 -1 0 41 0)"/><circle cx="2.5" cy="2.5" r="2.5" transform="matrix(0 1 -1 0 53 0)"/><circle cx="2.5" cy="2.5" r="2.5" transform="matrix(0 1 -1 0 65 0)"/><circle cx="2.5" cy="2.5" r="2.5" transform="matrix(0 1 -1 0 77 0)"/><circle cx="2.5" cy="2.5" r="2.5" transform="matrix(0 1 -1 0 89 0)"/><circle cx="2.5" cy="2.5" r="2.5" transform="matrix(0 1 -1 0 101 0)"/><circle cx="2.5" cy="2.5" r="2.5" transform="matrix(0 1 -1 0 113 0)"/><circle cx="2.5" cy="2.5" r="2.5" transform="matrix(0 1 -1 0 125 0)"/><circle cx="2.5" cy="2.5" r="2.5" transform="matrix(0 1 -1 0 137 0)"/><circle cx="2.5" cy="2.5" r="2.5" transform="matrix(0 1 -1 0 149 0)"/><circle cx="2.5" cy="2.5" r="2.5" transform="matrix(0 1 -1 0 161 0)"/><circle cx="2.5" cy="2.5" r="2.5" transform="matrix(0 1 -1 0 173 0)"/><circle cx="2.5" cy="2.5" r="2.5" transform="matrix(0 1 -1 0 185 0)"/><circle cx="2.5" cy="2.5" r="2.5" transform="matrix(0 1 -1 0 197 0)"/><circle cx="2.5" cy="2.5" r="2.5" transform="matrix(0 1 -1 0 209 0)"/><circle cx="2.5" cy="2.5" r="2.5" transform="matrix(0 1 -1 0 221 0)"/><circle cx="2.5" cy="2.5" r="2.5" transform="matrix(0 1 -1 0 233 0)"/><circle cx="2.5" cy="2.5" r="2.5" transform="matrix(0 1 -1 0 245 0)"/><circle cx="2.5" cy="2.5" r="2.5" transform="matrix(0 1 -1 0 257 0)"/><circle cx="2.5" cy="2.5" r="2.5" transform="matrix(0 1 -1 0 269 0)"/><circle cx="2.5" cy="2.5" r="2.5" transform="matrix(0 1 -1 0 281 0)"/><circle cx="2.5" cy="2.5" r="2.5" transform="matrix(0 1 -1 0 293 0)"/><circle cx="2.5" cy="2.5" r="2.5" transform="matrix(0 1 -1 0 305 0)"/><circle cx="2.5" cy="2.5" r="2.5" transform="matrix(0 1 -1 0 317 0)"/><circle cx="2.5" cy="2.5" r="2.5" transform="matrix(0 1 -1 0 329 0)"/><circle cx="2.5" cy="2.5" r="2.5" transform="matrix(0 1 -1 0 341 0)"/><circle cx="2.5" cy="2.5" r="2.5" transform="matrix(0 1 -1 0 353 0)"/><circle cx="2.5" cy="2.5" r="2.5" transform="matrix(0 1 -1 0 365 0)"/><circle cx="2.5" cy="2.5" r="2.5" transform="matrix(0 1 -1 0 377 0)"/><circle cx="2.5" cy="2.5" r="2.5" transform="matrix(0 1 -1 0 389 0)"/><circle cx="2.5" cy="2.5" r="2.5" transform="matrix(0 1 -1 0 5 12)"/><circle cx="2.5" cy="2.5" r="2.5" transform="matrix(0 1 -1 0 17 12)"/><circle cx="2.5" cy="2.5" r="2.5" transform="matrix(0 1 -1 0 29 12)"/><circle cx="2.5" cy="2.5" r="2.5" transform="matrix(0 1 -1 0 41 12)"/><circle cx="2.5" cy="2.5" r="2.5" transform="matrix(0 1 -1 0 53 12)"/><circle cx="2.5" cy="2.5" r="2.5" transform="matrix(0 1 -1 0 65 12)"/><circle cx="2.5" cy="2.5" r="2.5" transform="matrix(0 1 -1 0 77 12)"/><circle cx="2.5" cy="2.5" r="2.5" transform="matrix(0 1 -1 0 89 12)"/><circle cx="2.5" cy="2.5" r="2.5" transform="matrix(0 1 -1 0 101 12)"/><circle cx="2.5" cy="2.5" r="2.5" transform="matrix(0 1 -1 0 113 12)"/><circle cx="2.5" cy="2.5" r="2.5" transform="matrix(0 1 -1 0 125 12)"/><circle cx="2.5" cy="2.5" r="2.5" transform="matrix(0 1 -1 0 137 12)"/><circle cx="2.5" cy="2.5" r="2.5" transform="matrix(0 1 -1 0 149 12)"/><circle cx="2.5" cy="2.5" r="2.5" transform="matrix(0 1 -1 0 161 12)"/><circle cx="2.5" cy="2.5" r="2.5" transform="matrix(0 1 -1 0 173 12)"/><circle cx="2.5" cy="2.5" r="2.5" transform="matrix(0 1 -1 0 185 12)"/><circle cx="2.5" cy="2.5" r="2.5" transform="matrix(0 1 -1 0 197 12)"/><circle cx="2.5" cy="2.5" r="2.5" transform="matrix(0 1 -1 0 209 12)"/><circle cx="2.5" cy="2.5" r="2.5" transform="matrix(0 1 -1 0 221 12)"/><circle cx="2.5" cy="2.5" r="2.5" transform="matrix(0 1 -1 0 233 12)"/><circle cx="2.5" cy="2.5" r="2.5" transform="matrix(0 1 -1 0 245 12)"/><circle cx="2.5" cy="2.5" r="2.5" transform="matrix(0 1 -1 0 257 12)"/><circle cx="2.5" cy="2.5" r="2.5" transform="matrix(0 1 -1 0 269 12)"/><circle cx="2.5" cy="2.5" r="2.5" transform="matrix(0 1 -1 0 281 12)"/><circle cx="2.5" cy="2.5" r="2.5" transform="matrix(0 1 -1 0 293 12)"/><circle cx="2.5" cy="2.5" r="2.5" transform="matrix(0 1 -1 0 305 12)"/><circle cx="2.5" cy="2.5" r="2.5" transform="matrix(0 1 -1 0 317 12)"/><circle cx="2.5" cy="2.5" r="2.5" transform="matrix(0 1 -1 0 329 12)"/><circle cx="2.5" cy="2.5" r="2.5" transform="matrix(0 1 -1 0 341 12)"/><circle cx="2.5" cy="2.5" r="2.5" transform="matrix(0 1 -1 0 353 12)"/><circle cx="2.5" cy="2.5" r="2.5" transform="matrix(0 1 -1 0 365 12)"/><circle cx="2.5" cy="2.5" r="2.5" transform="matrix(0 1 -1 0 377 12)"/><circle cx="2.5" cy="2.5" r="2.5" transform="matrix(0 1 -1 0 389 12)"/><circle cx="2.5" cy="2.5" r="2.5" transform="matrix(0 1 -1 0 5 24)"/><circle cx="2.5" cy="2.5" r="2.5" transform="matrix(0 1 -1 0 17 24)"/><circle cx="2.5" cy="2.5" r="2.5" transform="matrix(0 1 -1 0 29 24)"/><circle cx="2.5" cy="2.5" r="2.5" transform="matrix(0 1 -1 0 41 24)"/><circle cx="2.5" cy="2.5" r="2.5" transform="matrix(0 1 -1 0 53 24)"/><circle cx="2.5" cy="2.5" r="2.5" transform="matrix(0 1 -1 0 65 24)"/><circle cx="2.5" cy="2.5" r="2.5" transform="matrix(0 1 -1 0 77 24)"/><circle cx="2.5" cy="2.5" r="2.5" transform="matrix(0 1 -1 0 89 24)"/><circle cx="2.5" cy="2.5" r="2.5" transform="matrix(0 1 -1 0 101 24)"/><circle cx="2.5" cy="2.5" r="2.5" transform="matrix(0 1 -1 0 113 24)"/><circle cx="2.5" cy="2.5" r="2.5" transform="matrix(0 1 -1 0 125 24)"/><circle cx="2.5" cy="2.5" r="2.5" transform="matrix(0 1 -1 0 137 24)"/><circle cx="2.5" cy="2.5" r="2.5" transform="matrix(0 1 -1 0 149 24)"/><circle cx="2.5" cy="2.5" r="2.5" transform="matrix(0 1 -1 0 161 24)"/><circle cx="2.5" cy="2.5" r="2.5" transform="matrix(0 1 -1 0 173 24)"/><circle cx="2.5" cy="2.5" r="2.5" transform="matrix(0 1 -1 0 185 24)"/><circle cx="2.5" cy="2.5" r="2.5" transform="matrix(0 1 -1 0 197 24)"/><circle cx="2.5" cy="2.5" r="2.5" transform="matrix(0 1 -1 0 209 24)"/><circle cx="2.5" cy="2.5" r="2.5" transform="matrix(0 1 -1 0 221 24)"/><circle cx="2.5" cy="2.5" r="2.5" transform="matrix(0 1 -1 0 233 24)"/><circle cx="2.5" cy="2.5" r="2.5" transform="matrix(0 1 -1 0 245 24)"/><circle cx="2.5" cy="2.5" r="2.5" transform="matrix(0 1 -1 0 257 24)"/><circle cx="2.5" cy="2.5" r="2.5" transform="matrix(0 1 -1 0 269 24)"/><circle cx="2.5" cy="2.5" r="2.5" transform="matrix(0 1 -1 0 281 24)"/><circle cx="2.5" cy="2.5" r="2.5" transform="matrix(0 1 -1 0 293 24)"/><circle cx="2.5" cy="2.5" r="2.5" transform="matrix(0 1 -1 0 305 24)"/><circle cx="2.5" cy="2.5" r="2.5" transform="matrix(0 1 -1 0 317 24)"/><circle cx="2.5" cy="2.5" r="2.5" transform="matrix(0 1 -1 0 329 24)"/><circle cx="2.5" cy="2.5" r="2.5" transform="matrix(0 1 -1 0 341 24)"/><circle cx="2.5" cy="2.5" r="2.5" transform="matrix(0 1 -1 0 353 24)"/><circle cx="2.5" cy="2.5" r="2.5" transform="matrix(0 1 -1 0 365 24)"/><circle cx="2.5" cy="2.5" r="2.5" transform="matrix(0 1 -1 0 377 24)"/><circle cx="2.5" cy="2.5" r="2.5" transform="matrix(0 1 -1 0 389 24)"/><circle cx="2.5" cy="2.5" r="2.5" transform="matrix(0 1 -1 0 5 36)"/><circle cx="2.5" cy="2.5" r="2.5" transform="matrix(0 1 -1 0 17 36)"/><circle cx="2.5" cy="2.5" r="2.5" transform="matrix(0 1 -1 0 29 36)"/><circle cx="2.5" cy="2.5" r="2.5" transform="matrix(0 1 -1 0 41 36)"/><circle cx="2.5" cy="2.5" r="2.5" transform="matrix(0 1 -1 0 53 36)"/><circle cx="2.5" cy="2.5" r="2.5" transform="matrix(0 1 -1 0 65 36)"/><circle cx="2.5" cy="2.5" r="2.5" transform="matrix(0 1 -1 0 77 36)"/><circle cx="2.5" cy="2.5" r="2.5" transform="matrix(0 1 -1 0 89 36)"/><circle cx="2.5" cy="2.5" r="2.5" transform="matrix(0 1 -1 0 101 36)"/><circle cx="2.5" cy="2.5" r="2.5" transform="matrix(0 1 -1 0 113 36)"/><circle cx="2.5" cy="2.5" r="2.5" transform="matrix(0 1 -1 0 125 36)"/><circle cx="2.5" cy="2.5" r="2.5" transform="matrix(0 1 -1 0 137 36)"/><circle cx="2.5" cy="2.5" r="2.5" transform="matrix(0 1 -1 0 149 36)"/><circle cx="2.5" cy="2.5" r="2.5" transform="matrix(0 1 -1 0 161 36)"/><circle cx="2.5" cy="2.5" r="2.5" transform="matrix(0 1 -1 0 173 36)"/><circle cx="2.5" cy="2.5" r="2.5" transform="matrix(0 1 -1 0 185 36)"/><circle cx="2.5" cy="2.5" r="2.5" transform="matrix(0 1 -1 0 197 36)"/><circle cx="2.5" cy="2.5" r="2.5" transform="matrix(0 1 -1 0 209 36)"/><circle cx="2.5" cy="2.5" r="2.5" transform="matrix(0 1 -1 0 221 36)"/><circle cx="2.5" cy="2.5" r="2.5" transform="matrix(0 1 -1 0 233 36)"/><circle cx="2.5" cy="2.5" r="2.5" transform="matrix(0 1 -1 0 245 36)"/><circle cx="2.5" cy="2.5" r="2.5" transform="matrix(0 1 -1 0 257 36)"/><circle cx="2.5" cy="2.5" r="2.5" transform="matrix(0 1 -1 0 269 36)"/><circle cx="2.5" cy="2.5" r="2.5" transform="matrix(0 1 -1 0 281 36)"/><circle cx="2.5" cy="2.5" r="2.5" transform="matrix(0 1 -1 0 293 36)"/><circle cx="2.5" cy="2.5" r="2.5" transform="matrix(0 1 -1 0 305 36)"/><circle cx="2.5" cy="2.5" r="2.5" transform="matrix(0 1 -1 0 317 36)"/><circle cx="2.5" cy="2.5" r="2.5" transform="matrix(0 1 -1 0 329 36)"/><circle cx="2.5" cy="2.5" r="2.5" transform="matrix(0 1 -1 0 341 36)"/><circle cx="2.5" cy="2.5" r="2.5" transform="matrix(0 1 -1 0 353 36)"/><circle cx="2.5" cy="2.5" r="2.5" transform="matrix(0 1 -1 0 365 36)"/><circle cx="2.5" cy="2.5" r="2.5" transform="matrix(0 1 -1 0 377 36)"/><circle cx="2.5" cy="2.5" r="2.5" transform="matrix(0 1 -1 0 389 36)"/><circle cx="2.5" cy="2.5" r="2.5" transform="matrix(0 1 -1 0 5 48)"/><circle cx="2.5" cy="2.5" r="2.5" transform="matrix(0 1 -1 0 17 48)"/><circle cx="2.5" cy="2.5" r="2.5" transform="matrix(0 1 -1 0 29 48)"/><circle cx="2.5" cy="2.5" r="2.5" transform="matrix(0 1 -1 0 41 48)"/><circle cx="2.5" cy="2.5" r="2.5" transform="matrix(0 1 -1 0 53 48)"/><circle cx="2.5" cy="2.5" r="2.5" transform="matrix(0 1 -1 0 65 48)"/><circle cx="2.5" cy="2.5" r="2.5" transform="matrix(0 1 -1 0 77 48)"/><circle cx="2.5" cy="2.5" r="2.5" transform="matrix(0 1 -1 0 89 48)"/><circle cx="2.5" cy="2.5" r="2.5" transform="matrix(0 1 -1 0 101 48)"/><circle cx="2.5" cy="2.5" r="2.5" transform="matrix(0 1 -1 0 113 48)"/><circle cx="2.5" cy="2.5" r="2.5" transform="matrix(0 1 -1 0 125 48)"/><circle cx="2.5" cy="2.5" r="2.5" transform="matrix(0 1 -1 0 137 48)"/><circle cx="2.5" cy="2.5" r="2.5" transform="matrix(0 1 -1 0 149 48)"/><circle cx="2.5" cy="2.5" r="2.5" transform="matrix(0 1 -1 0 161 48)"/><circle cx="2.5" cy="2.5" r="2.5" transform="matrix(0 1 -1 0 173 48)"/><circle cx="2.5" cy="2.5" r="2.5" transform="matrix(0 1 -1 0 185 48)"/><circle cx="2.5" cy="2.5" r="2.5" transform="matrix(0 1 -1 0 197 48)"/><circle cx="2.5" cy="2.5" r="2.5" transform="matrix(0 1 -1 0 209 48)"/><circle cx="2.5" cy="2.5" r="2.5" transform="matrix(0 1 -1 0 221 48)"/><circle cx="2.5" cy="2.5" r="2.5" transform="matrix(0 1 -1 0 233 48)"/><circle cx="2.5" cy="2.5" r="2.5" transform="matrix(0 1 -1 0 245 48)"/><circle cx="2.5" cy="2.5" r="2.5" transform="matrix(0 1 -1 0 257 48)"/><circle cx="2.5" cy="2.5" r="2.5" transform="matrix(0 1 -1 0 269 48)"/><circle cx="2.5" cy="2.5" r="2.5" transform="matrix(0 1 -1 0 281 48)"/><circle cx="2.5" cy="2.5" r="2.5" transform="matrix(0 1 -1 0 293 48)"/><circle cx="2.5" cy="2.5" r="2.5" transform="matrix(0 1 -1 0 305 48)"/><circle cx="2.5" cy="2.5" r="2.5" transform="matrix(0 1 -1 0 317 48)"/><circle cx="2.5" cy="2.5" r="2.5" transform="matrix(0 1 -1 0 329 48)"/><circle cx="2.5" cy="2.5" r="2.5" transform="matrix(0 1 -1 0 341 48)"/><circle cx="2.5" cy="2.5" r="2.5" transform="matrix(0 1 -1 0 353 48)"/><circle cx="2.5" cy="2.5" r="2.5" transform="matrix(0 1 -1 0 365 48)"/><circle cx="2.5" cy="2.5" r="2.5" transform="matrix(0 1 -1 0 377 48)"/><circle cx="2.5" cy="2.5" r="2.5" transform="matrix(0 1 -1 0 389 48)"/><circle cx="2.5" cy="2.5" r="2.5" transform="matrix(0 1 -1 0 5 60)"/><circle cx="2.5" cy="2.5" r="2.5" transform="matrix(0 1 -1 0 17 60)"/><circle cx="2.5" cy="2.5" r="2.5" transform="matrix(0 1 -1 0 29 60)"/><circle cx="2.5" cy="2.5" r="2.5" transform="matrix(0 1 -1 0 41 60)"/><circle cx="2.5" cy="2.5" r="2.5" transform="matrix(0 1 -1 0 53 60)"/><circle cx="2.5" cy="2.5" r="2.5" transform="matrix(0 1 -1 0 65 60)"/><circle cx="2.5" cy="2.5" r="2.5" transform="matrix(0 1 -1 0 77 60)"/><circle cx="2.5" cy="2.5" r="2.5" transform="matrix(0 1 -1 0 89 60)"/><circle cx="2.5" cy="2.5" r="2.5" transform="matrix(0 1 -1 0 101 60)"/><circle cx="2.5" cy="2.5" r="2.5" transform="matrix(0 1 -1 0 113 60)"/><circle cx="2.5" cy="2.5" r="2.5" transform="matrix(0 1 -1 0 125 60)"/><circle cx="2.5" cy="2.5" r="2.5" transform="matrix(0 1 -1 0 137 60)"/><circle cx="2.5" cy="2.5" r="2.5" transform="matrix(0 1 -1 0 149 60)"/><circle cx="2.5" cy="2.5" r="2.5" transform="matrix(0 1 -1 0 161 60)"/><circle cx="2.5" cy="2.5" r="2.5" transform="matrix(0 1 -1 0 173 60)"/><circle cx="2.5" cy="2.5" r="2.5" transform="matrix(0 1 -1 0 185 60)"/><circle cx="2.5" cy="2.5" r="2.5" transform="matrix(0 1 -1 0 197 60)"/><circle cx="2.5" cy="2.5" r="2.5" transform="matrix(0 1 -1 0 209 60)"/><circle cx="2.5" cy="2.5" r="2.5" transform="matrix(0 1 -1 0 221 60)"/><circle cx="2.5" cy="2.5" r="2.5" transform="matrix(0 1 -1 0 233 60)"/><circle cx="2.5" cy="2.5" r="2.5" transform="matrix(0 1 -1 0 245 60)"/><circle cx="2.5" cy="2.5" r="2.5" transform="matrix(0 1 -1 0 257 60)"/><circle cx="2.5" cy="2.5" r="2.5" transform="matrix(0 1 -1 0 269 60)"/><circle cx="2.5" cy="2.5" r="2.5" transform="matrix(0 1 -1 0 281 60)"/><circle cx="2.5" cy="2.5" r="2.5" transform="matrix(0 1 -1 0 293 60)"/><circle cx="2.5" cy="2.5" r="2.5" transform="matrix(0 1 -1 0 305 60)"/><circle cx="2.5" cy="2.5" r="2.5" transform="matrix(0 1 -1 0 317 60)"/><circle cx="2.5" cy="2.5" r="2.5" transform="matrix(0 1 -1 0 329 60)"/><circle cx="2.5" cy="2.5" r="2.5" transform="matrix(0 1 -1 0 341 60)"/><circle cx="2.5" cy="2.5" r="2.5" transform="matrix(0 1 -1 0 353 60)"/><circle cx="2.5" cy="2.5" r="2.5" transform="matrix(0 1 -1 0 365 60)"/><circle cx="2.5" cy="2.5" r="2.5" transform="matrix(0 1 -1 0 377 60)"/><circle cx="2.5" cy="2.5" r="2.5" transform="matrix(0 1 -1 0 389 60)"/><circle cx="2.5" cy="2.5" r="2.5" transform="matrix(0 1 -1 0 5 72)"/><circle cx="2.5" cy="2.5" r="2.5" transform="matrix(0 1 -1 0 17 72)"/><circle cx="2.5" cy="2.5" r="2.5" transform="matrix(0 1 -1 0 29 72)"/><circle cx="2.5" cy="2.5" r="2.5" transform="matrix(0 1 -1 0 41 72)"/><circle cx="2.5" cy="2.5" r="2.5" transform="matrix(0 1 -1 0 53 72)"/><circle cx="2.5" cy="2.5" r="2.5" transform="matrix(0 1 -1 0 65 72)"/><circle cx="2.5" cy="2.5" r="2.5" transform="matrix(0 1 -1 0 77 72)"/><circle cx="2.5" cy="2.5" r="2.5" transform="matrix(0 1 -1 0 89 72)"/><circle cx="2.5" cy="2.5" r="2.5" transform="matrix(0 1 -1 0 101 72)"/><circle cx="2.5" cy="2.5" r="2.5" transform="matrix(0 1 -1 0 113 72)"/><circle cx="2.5" cy="2.5" r="2.5" transform="matrix(0 1 -1 0 125 72)"/><circle cx="2.5" cy="2.5" r="2.5" transform="matrix(0 1 -1 0 137 72)"/><circle cx="2.5" cy="2.5" r="2.5" transform="matrix(0 1 -1 0 149 72)"/><circle cx="2.5" cy="2.5" r="2.5" transform="matrix(0 1 -1 0 161 72)"/><circle cx="2.5" cy="2.5" r="2.5" transform="matrix(0 1 -1 0 173 72)"/><circle cx="2.5" cy="2.5" r="2.5" transform="matrix(0 1 -1 0 185 72)"/><circle cx="2.5" cy="2.5" r="2.5" transform="matrix(0 1 -1 0 197 72)"/><circle cx="2.5" cy="2.5" r="2.5" transform="matrix(0 1 -1 0 209 72)"/><circle cx="2.5" cy="2.5" r="2.5" transform="matrix(0 1 -1 0 221 72)"/><circle cx="2.5" cy="2.5" r="2.5" transform="matrix(0 1 -1 0 233 72)"/><circle cx="2.5" cy="2.5" r="2.5" transform="matrix(0 1 -1 0 245 72)"/><circle cx="2.5" cy="2.5" r="2.5" transform="matrix(0 1 -1 0 257 72)"/><circle cx="2.5" cy="2.5" r="2.5" transform="matrix(0 1 -1 0 269 72)"/><circle cx="2.5" cy="2.5" r="2.5" transform="matrix(0 1 -1 0 281 72)"/><circle cx="2.5" cy="2.5" r="2.5" transform="matrix(0 1 -1 0 293 72)"/><circle cx="2.5" cy="2.5" r="2.5" transform="matrix(0 1 -1 0 305 72)"/><circle cx="2.5" cy="2.5" r="2.5" transform="matrix(0 1 -1 0 317 72)"/><circle cx="2.5" cy="2.5" r="2.5" transform="matrix(0 1 -1 0 329 72)"/><circle cx="2.5" cy="2.5" r="2.5" transform="matrix(0 1 -1 0 341 72)"/><circle cx="2.5" cy="2.5" r="2.5" transform="matrix(0 1 -1 0 353 72)"/><circle cx="2.5" cy="2.5" r="2.5" transform="matrix(0 1 -1 0 365 72)"/><circle cx="2.5" cy="2.5" r="2.5" transform="matrix(0 1 -1 0 377 72)"/><circle cx="2.5" cy="2.5" r="2.5" transform="matrix(0 1 -1 0 389 72)"/><circle cx="2.5" cy="2.5" r="2.5" transform="matrix(0 1 -1 0 5 84)"/><circle cx="2.5" cy="2.5" r="2.5" transform="matrix(0 1 -1 0 17 84)"/><circle cx="2.5" cy="2.5" r="2.5" transform="matrix(0 1 -1 0 29 84)"/><circle cx="2.5" cy="2.5" r="2.5" transform="matrix(0 1 -1 0 41 84)"/><circle cx="2.5" cy="2.5" r="2.5" transform="matrix(0 1 -1 0 53 84)"/><circle cx="2.5" cy="2.5" r="2.5" transform="matrix(0 1 -1 0 65 84)"/><circle cx="2.5" cy="2.5" r="2.5" transform="matrix(0 1 -1 0 77 84)"/><circle cx="2.5" cy="2.5" r="2.5" transform="matrix(0 1 -1 0 89 84)"/><circle cx="2.5" cy="2.5" r="2.5" transform="matrix(0 1 -1 0 101 84)"/><circle cx="2.5" cy="2.5" r="2.5" transform="matrix(0 1 -1 0 113 84)"/><circle cx="2.5" cy="2.5" r="2.5" transform="matrix(0 1 -1 0 125 84)"/><circle cx="2.5" cy="2.5" r="2.5" transform="matrix(0 1 -1 0 137 84)"/><circle cx="2.5" cy="2.5" r="2.5" transform="matrix(0 1 -1 0 149 84)"/><circle cx="2.5" cy="2.5" r="2.5" transform="matrix(0 1 -1 0 161 84)"/><circle cx="2.5" cy="2.5" r="2.5" transform="matrix(0 1 -1 0 173 84)"/><circle cx="2.5" cy="2.5" r="2.5" transform="matrix(0 1 -1 0 185 84)"/><circle cx="2.5" cy="2.5" r="2.5" transform="matrix(0 1 -1 0 197 84)"/><circle cx="2.5" cy="2.5" r="2.5" transform="matrix(0 1 -1 0 209 84)"/><circle cx="2.5" cy="2.5" r="2.5" transform="matrix(0 1 -1 0 221 84)"/><circle cx="2.5" cy="2.5" r="2.5" transform="matrix(0 1 -1 0 233 84)"/><circle cx="2.5" cy="2.5" r="2.5" transform="matrix(0 1 -1 0 245 84)"/><circle cx="2.5" cy="2.5" r="2.5" transform="matrix(0 1 -1 0 257 84)"/><circle cx="2.5" cy="2.5" r="2.5" transform="matrix(0 1 -1 0 269 84)"/><circle cx="2.5" cy="2.5" r="2.5" transform="matrix(0 1 -1 0 281 84)"/><circle cx="2.5" cy="2.5" r="2.5" transform="matrix(0 1 -1 0 293 84)"/><circle cx="2.5" cy="2.5" r="2.5" transform="matrix(0 1 -1 0 305 84)"/><circle cx="2.5" cy="2.5" r="2.5" transform="matrix(0 1 -1 0 317 84)"/><circle cx="2.5" cy="2.5" r="2.5" transform="matrix(0 1 -1 0 329 84)"/><circle cx="2.5" cy="2.5" r="2.5" transform="matrix(0 1 -1 0 341 84)"/><circle cx="2.5" cy="2.5" r="2.5" transform="matrix(0 1 -1 0 353 84)"/><circle cx="2.5" cy="2.5" r="2.5" transform="matrix(0 1 -1 0 365 84)"/><circle cx="2.5" cy="2.5" r="2.5" transform="matrix(0 1 -1 0 377 84)"/><circle cx="2.5" cy="2.5" r="2.5" transform="matrix(0 1 -1 0 389 84)"/><circle cx="2.5" cy="2.5" r="2.5" transform="matrix(0 1 -1 0 5 96)"/><circle cx="2.5" cy="2.5" r="2.5" transform="matrix(0 1 -1 0 17 96)"/><circle cx="2.5" cy="2.5" r="2.5" transform="matrix(0 1 -1 0 29 96)"/><circle cx="2.5" cy="2.5" r="2.5" transform="matrix(0 1 -1 0 41 96)"/><circle cx="2.5" cy="2.5" r="2.5" transform="matrix(0 1 -1 0 53 96)"/><circle cx="2.5" cy="2.5" r="2.5" transform="matrix(0 1 -1 0 65 96)"/><circle cx="2.5" cy="2.5" r="2.5" transform="matrix(0 1 -1 0 77 96)"/><circle cx="2.5" cy="2.5" r="2.5" transform="matrix(0 1 -1 0 89 96)"/><circle cx="2.5" cy="2.5" r="2.5" transform="matrix(0 1 -1 0 101 96)"/><circle cx="2.5" cy="2.5" r="2.5" transform="matrix(0 1 -1 0 113 96)"/><circle cx="2.5" cy="2.5" r="2.5" transform="matrix(0 1 -1 0 125 96)"/><circle cx="2.5" cy="2.5" r="2.5" transform="matrix(0 1 -1 0 137 96)"/><circle cx="2.5" cy="2.5" r="2.5" transform="matrix(0 1 -1 0 149 96)"/><circle cx="2.5" cy="2.5" r="2.5" transform="matrix(0 1 -1 0 161 96)"/><circle cx="2.5" cy="2.5" r="2.5" transform="matrix(0 1 -1 0 173 96)"/><circle cx="2.5" cy="2.5" r="2.5" transform="matrix(0 1 -1 0 185 96)"/><circle cx="2.5" cy="2.5" r="2.5" transform="matrix(0 1 -1 0 197 96)"/><circle cx="2.5" cy="2.5" r="2.5" transform="matrix(0 1 -1 0 209 96)"/><circle cx="2.5" cy="2.5" r="2.5" transform="matrix(0 1 -1 0 221 96)"/><circle cx="2.5" cy="2.5" r="2.5" transform="matrix(0 1 -1 0 233 96)"/><circle cx="2.5" cy="2.5" r="2.5" transform="matrix(0 1 -1 0 245 96)"/><circle cx="2.5" cy="2.5" r="2.5" transform="matrix(0 1 -1 0 257 96)"/><circle cx="2.5" cy="2.5" r="2.5" transform="matrix(0 1 -1 0 269 96)"/><circle cx="2.5" cy="2.5" r="2.5" transform="matrix(0 1 -1 0 281 96)"/><circle cx="2.5" cy="2.5" r="2.5" transform="matrix(0 1 -1 0 293 96)"/><circle cx="2.5" cy="2.5" r="2.5" transform="matrix(0 1 -1 0 305 96)"/><circle cx="2.5" cy="2.5" r="2.5" transform="matrix(0 1 -1 0 317 96)"/><circle cx="2.5" cy="2.5" r="2.5" transform="matrix(0 1 -1 0 329 96)"/><circle cx="2.5" cy="2.5" r="2.5" transform="matrix(0 1 -1 0 341 96)"/><circle cx="2.5" cy="2.5" r="2.5" transform="matrix(0 1 -1 0 353 96)"/><circle cx="2.5" cy="2.5" r="2.5" transform="matrix(0 1 -1 0 365 96)"/><circle cx="2.5" cy="2.5" r="2.5" transform="matrix(0 1 -1 0 377 96)"/><circle cx="2.5" cy="2.5" r="2.5" transform="matrix(0 1 -1 0 389 96)"/><circle cx="2.5" cy="2.5" r="2.5" transform="matrix(0 1 -1 0 5 108)"/><circle cx="2.5" cy="2.5" r="2.5" transform="matrix(0 1 -1 0 17 108)"/><circle cx="2.5" cy="2.5" r="2.5" transform="matrix(0 1 -1 0 29 108)"/><circle cx="2.5" cy="2.5" r="2.5" transform="matrix(0 1 -1 0 41 108)"/><circle cx="2.5" cy="2.5" r="2.5" transform="matrix(0 1 -1 0 53 108)"/><circle cx="2.5" cy="2.5" r="2.5" transform="matrix(0 1 -1 0 65 108)"/><circle cx="2.5" cy="2.5" r="2.5" transform="matrix(0 1 -1 0 77 108)"/><circle cx="2.5" cy="2.5" r="2.5" transform="matrix(0 1 -1 0 89 108)"/><circle cx="2.5" cy="2.5" r="2.5" transform="matrix(0 1 -1 0 101 108)"/><circle cx="2.5" cy="2.5" r="2.5" transform="matrix(0 1 -1 0 113 108)"/><circle cx="2.5" cy="2.5" r="2.5" transform="matrix(0 1 -1 0 125 108)"/><circle cx="2.5" cy="2.5" r="2.5" transform="matrix(0 1 -1 0 137 108)"/><circle cx="2.5" cy="2.5" r="2.5" transform="matrix(0 1 -1 0 149 108)"/><circle cx="2.5" cy="2.5" r="2.5" transform="matrix(0 1 -1 0 161 108)"/><circle cx="2.5" cy="2.5" r="2.5" transform="matrix(0 1 -1 0 173 108)"/><circle cx="2.5" cy="2.5" r="2.5" transform="matrix(0 1 -1 0 185 108)"/><circle cx="2.5" cy="2.5" r="2.5" transform="matrix(0 1 -1 0 197 108)"/><circle cx="2.5" cy="2.5" r="2.5" transform="matrix(0 1 -1 0 209 108)"/><circle cx="2.5" cy="2.5" r="2.5" transform="matrix(0 1 -1 0 221 108)"/><circle cx="2.5" cy="2.5" r="2.5" transform="matrix(0 1 -1 0 233 108)"/><circle cx="2.5" cy="2.5" r="2.5" transform="matrix(0 1 -1 0 245 108)"/><circle cx="2.5" cy="2.5" r="2.5" transform="matrix(0 1 -1 0 257 108)"/><circle cx="2.5" cy="2.5" r="2.5" transform="matrix(0 1 -1 0 269 108)"/><circle cx="2.5" cy="2.5" r="2.5" transform="matrix(0 1 -1 0 281 108)"/><circle cx="2.5" cy="2.5" r="2.5" transform="matrix(0 1 -1 0 293 108)"/><circle cx="2.5" cy="2.5" r="2.5" transform="matrix(0 1 -1 0 305 108)"/><circle cx="2.5" cy="2.5" r="2.5" transform="matrix(0 1 -1 0 317 108)"/><circle cx="2.5" cy="2.5" r="2.5" transform="matrix(0 1 -1 0 329 108)"/><circle cx="2.5" cy="2.5" r="2.5" transform="matrix(0 1 -1 0 341 108)"/><circle cx="2.5" cy="2.5" r="2.5" transform="matrix(0 1 -1 0 353 108)"/><circle cx="2.5" cy="2.5" r="2.5" transform="matrix(0 1 -1 0 365 108)"/><circle cx="2.5" cy="2.5" r="2.5" transform="matrix(0 1 -1 0 377 108)"/><circle cx="2.5" cy="2.5" r="2.5" transform="matrix(0 1 -1 0 389 108)"/><circle cx="2.5" cy="2.5" r="2.5" transform="matrix(0 1 -1 0 5 120)"/><circle cx="2.5" cy="2.5" r="2.5" transform="matrix(0 1 -1 0 17 120)"/><circle cx="2.5" cy="2.5" r="2.5" transform="matrix(0 1 -1 0 29 120)"/><circle cx="2.5" cy="2.5" r="2.5" transform="matrix(0 1 -1 0 41 120)"/><circle cx="2.5" cy="2.5" r="2.5" transform="matrix(0 1 -1 0 53 120)"/><circle cx="2.5" cy="2.5" r="2.5" transform="matrix(0 1 -1 0 65 120)"/><circle cx="2.5" cy="2.5" r="2.5" transform="matrix(0 1 -1 0 77 120)"/><circle cx="2.5" cy="2.5" r="2.5" transform="matrix(0 1 -1 0 89 120)"/><circle cx="2.5" cy="2.5" r="2.5" transform="matrix(0 1 -1 0 101 120)"/><circle cx="2.5" cy="2.5" r="2.5" transform="matrix(0 1 -1 0 113 120)"/><circle cx="2.5" cy="2.5" r="2.5" transform="matrix(0 1 -1 0 125 120)"/><circle cx="2.5" cy="2.5" r="2.5" transform="matrix(0 1 -1 0 137 120)"/><circle cx="2.5" cy="2.5" r="2.5" transform="matrix(0 1 -1 0 149 120)"/><circle cx="2.5" cy="2.5" r="2.5" transform="matrix(0 1 -1 0 161 120)"/><circle cx="2.5" cy="2.5" r="2.5" transform="matrix(0 1 -1 0 173 120)"/><circle cx="2.5" cy="2.5" r="2.5" transform="matrix(0 1 -1 0 185 120)"/><circle cx="2.5" cy="2.5" r="2.5" transform="matrix(0 1 -1 0 197 120)"/><circle cx="2.5" cy="2.5" r="2.5" transform="matrix(0 1 -1 0 209 120)"/><circle cx="2.5" cy="2.5" r="2.5" transform="matrix(0 1 -1 0 221 120)"/><circle cx="2.5" cy="2.5" r="2.5" transform="matrix(0 1 -1 0 233 120)"/><circle cx="2.5" cy="2.5" r="2.5" transform="matrix(0 1 -1 0 245 120)"/><circle cx="2.5" cy="2.5" r="2.5" transform="matrix(0 1 -1 0 257 120)"/><circle cx="2.5" cy="2.5" r="2.5" transform="matrix(0 1 -1 0 269 120)"/><circle cx="2.5" cy="2.5" r="2.5" transform="matrix(0 1 -1 0 281 120)"/><circle cx="2.5" cy="2.5" r="2.5" transform="matrix(0 1 -1 0 293 120)"/><circle cx="2.5" cy="2.5" r="2.5" transform="matrix(0 1 -1 0 305 120)"/><circle cx="2.5" cy="2.5" r="2.5" transform="matrix(0 1 -1 0 317 120)"/><circle cx="2.5" cy="2.5" r="2.5" transform="matrix(0 1 -1 0 329 120)"/><circle cx="2.5" cy="2.5" r="2.5" transform="matrix(0 1 -1 0 341 120)"/><circle cx="2.5" cy="2.5" r="2.5" transform="matrix(0 1 -1 0 353 120)"/><circle cx="2.5" cy="2.5" r="2.5" transform="matrix(0 1 -1 0 365 120)"/><circle cx="2.5" cy="2.5" r="2.5" transform="matrix(0 1 -1 0 377 120)"/><circle cx="2.5" cy="2.5" r="2.5" transform="matrix(0 1 -1 0 389 120)"/><circle cx="2.5" cy="2.5" r="2.5" transform="matrix(0 1 -1 0 5 132)"/><circle cx="2.5" cy="2.5" r="2.5" transform="matrix(0 1 -1 0 17 132)"/><circle cx="2.5" cy="2.5" r="2.5" transform="matrix(0 1 -1 0 29 132)"/><circle cx="2.5" cy="2.5" r="2.5" transform="matrix(0 1 -1 0 41 132)"/><circle cx="2.5" cy="2.5" r="2.5" transform="matrix(0 1 -1 0 53 132)"/><circle cx="2.5" cy="2.5" r="2.5" transform="matrix(0 1 -1 0 65 132)"/><circle cx="2.5" cy="2.5" r="2.5" transform="matrix(0 1 -1 0 77 132)"/><circle cx="2.5" cy="2.5" r="2.5" transform="matrix(0 1 -1 0 89 132)"/><circle cx="2.5" cy="2.5" r="2.5" transform="matrix(0 1 -1 0 101 132)"/><circle cx="2.5" cy="2.5" r="2.5" transform="matrix(0 1 -1 0 113 132)"/><circle cx="2.5" cy="2.5" r="2.5" transform="matrix(0 1 -1 0 125 132)"/><circle cx="2.5" cy="2.5" r="2.5" transform="matrix(0 1 -1 0 137 132)"/><circle cx="2.5" cy="2.5" r="2.5" transform="matrix(0 1 -1 0 149 132)"/><circle cx="2.5" cy="2.5" r="2.5" transform="matrix(0 1 -1 0 161 132)"/><circle cx="2.5" cy="2.5" r="2.5" transform="matrix(0 1 -1 0 173 132)"/><circle cx="2.5" cy="2.5" r="2.5" transform="matrix(0 1 -1 0 185 132)"/><circle cx="2.5" cy="2.5" r="2.5" transform="matrix(0 1 -1 0 197 132)"/><circle cx="2.5" cy="2.5" r="2.5" transform="matrix(0 1 -1 0 209 132)"/><circle cx="2.5" cy="2.5" r="2.5" transform="matrix(0 1 -1 0 221 132)"/><circle cx="2.5" cy="2.5" r="2.5" transform="matrix(0 1 -1 0 233 132)"/><circle cx="2.5" cy="2.5" r="2.5" transform="matrix(0 1 -1 0 245 132)"/><circle cx="2.5" cy="2.5" r="2.5" transform="matrix(0 1 -1 0 257 132)"/><circle cx="2.5" cy="2.5" r="2.5" transform="matrix(0 1 -1 0 269 132)"/><circle cx="2.5" cy="2.5" r="2.5" transform="matrix(0 1 -1 0 281 132)"/><circle cx="2.5" cy="2.5" r="2.5" transform="matrix(0 1 -1 0 293 132)"/><circle cx="2.5" cy="2.5" r="2.5" transform="matrix(0 1 -1 0 305 132)"/><circle cx="2.5" cy="2.5" r="2.5" transform="matrix(0 1 -1 0 317 132)"/><circle cx="2.5" cy="2.5" r="2.5" transform="matrix(0 1 -1 0 329 132)"/><circle cx="2.5" cy="2.5" r="2.5" transform="matrix(0 1 -1 0 341 132)"/><circle cx="2.5" cy="2.5" r="2.5" transform="matrix(0 1 -1 0 353 132)"/><circle cx="2.5" cy="2.5" r="2.5" transform="matrix(0 1 -1 0 365 132)"/><circle cx="2.5" cy="2.5" r="2.5" transform="matrix(0 1 -1 0 377 132)"/><circle cx="2.5" cy="2.5" r="2.5" transform="matrix(0 1 -1 0 389 132)"/><circle cx="2.5" cy="2.5" r="2.5" transform="matrix(0 1 -1 0 5 144)"/><circle cx="2.5" cy="2.5" r="2.5" transform="matrix(0 1 -1 0 17 144)"/><circle cx="2.5" cy="2.5" r="2.5" transform="matrix(0 1 -1 0 29 144)"/><circle cx="2.5" cy="2.5" r="2.5" transform="matrix(0 1 -1 0 41 144)"/><circle cx="2.5" cy="2.5" r="2.5" transform="matrix(0 1 -1 0 53 144)"/><circle cx="2.5" cy="2.5" r="2.5" transform="matrix(0 1 -1 0 65 144)"/><circle cx="2.5" cy="2.5" r="2.5" transform="matrix(0 1 -1 0 77 144)"/><circle cx="2.5" cy="2.5" r="2.5" transform="matrix(0 1 -1 0 89 144)"/><circle cx="2.5" cy="2.5" r="2.5" transform="matrix(0 1 -1 0 101 144)"/><circle cx="2.5" cy="2.5" r="2.5" transform="matrix(0 1 -1 0 113 144)"/><circle cx="2.5" cy="2.5" r="2.5" transform="matrix(0 1 -1 0 125 144)"/><circle cx="2.5" cy="2.5" r="2.5" transform="matrix(0 1 -1 0 137 144)"/><circle cx="2.5" cy="2.5" r="2.5" transform="matrix(0 1 -1 0 149 144)"/><circle cx="2.5" cy="2.5" r="2.5" transform="matrix(0 1 -1 0 161 144)"/><circle cx="2.5" cy="2.5" r="2.5" transform="matrix(0 1 -1 0 173 144)"/><circle cx="2.5" cy="2.5" r="2.5" transform="matrix(0 1 -1 0 185 144)"/><circle cx="2.5" cy="2.5" r="2.5" transform="matrix(0 1 -1 0 197 144)"/><circle cx="2.5" cy="2.5" r="2.5" transform="matrix(0 1 -1 0 209 144)"/><circle cx="2.5" cy="2.5" r="2.5" transform="matrix(0 1 -1 0 221 144)"/><circle cx="2.5" cy="2.5" r="2.5" transform="matrix(0 1 -1 0 233 144)"/><circle cx="2.5" cy="2.5" r="2.5" transform="matrix(0 1 -1 0 245 144)"/><circle cx="2.5" cy="2.5" r="2.5" transform="matrix(0 1 -1 0 257 144)"/><circle cx="2.5" cy="2.5" r="2.5" transform="matrix(0 1 -1 0 269 144)"/><circle cx="2.5" cy="2.5" r="2.5" transform="matrix(0 1 -1 0 281 144)"/><circle cx="2.5" cy="2.5" r="2.5" transform="matrix(0 1 -1 0 293 144)"/><circle cx="2.5" cy="2.5" r="2.5" transform="matrix(0 1 -1 0 305 144)"/><circle cx="2.5" cy="2.5" r="2.5" transform="matrix(0 1 -1 0 317 144)"/><circle cx="2.5" cy="2.5" r="2.5" transform="matrix(0 1 -1 0 329 144)"/><circle cx="2.5" cy="2.5" r="2.5" transform="matrix(0 1 -1 0 341 144)"/><circle cx="2.5" cy="2.5" r="2.5" transform="matrix(0 1 -1 0 353 144)"/><circle cx="2.5" cy="2.5" r="2.5" transform="matrix(0 1 -1 0 365 144)"/><circle cx="2.5" cy="2.5" r="2.5" transform="matrix(0 1 -1 0 377 144)"/><circle cx="2.5" cy="2.5" r="2.5" transform="matrix(0 1 -1 0 389 144)"/><circle cx="2.5" cy="2.5" r="2.5" transform="matrix(0 1 -1 0 5 156)"/><circle cx="2.5" cy="2.5" r="2.5" transform="matrix(0 1 -1 0 17 156)"/><circle cx="2.5" cy="2.5" r="2.5" transform="matrix(0 1 -1 0 29 156)"/><circle cx="2.5" cy="2.5" r="2.5" transform="matrix(0 1 -1 0 41 156)"/><circle cx="2.5" cy="2.5" r="2.5" transform="matrix(0 1 -1 0 53 156)"/><circle cx="2.5" cy="2.5" r="2.5" transform="matrix(0 1 -1 0 65 156)"/><circle cx="2.5" cy="2.5" r="2.5" transform="matrix(0 1 -1 0 77 156)"/><circle cx="2.5" cy="2.5" r="2.5" transform="matrix(0 1 -1 0 89 156)"/><circle cx="2.5" cy="2.5" r="2.5" transform="matrix(0 1 -1 0 101 156)"/><circle cx="2.5" cy="2.5" r="2.5" transform="matrix(0 1 -1 0 113 156)"/><circle cx="2.5" cy="2.5" r="2.5" transform="matrix(0 1 -1 0 125 156)"/><circle cx="2.5" cy="2.5" r="2.5" transform="matrix(0 1 -1 0 137 156)"/><circle cx="2.5" cy="2.5" r="2.5" transform="matrix(0 1 -1 0 149 156)"/><circle cx="2.5" cy="2.5" r="2.5" transform="matrix(0 1 -1 0 161 156)"/><circle cx="2.5" cy="2.5" r="2.5" transform="matrix(0 1 -1 0 173 156)"/><circle cx="2.5" cy="2.5" r="2.5" transform="matrix(0 1 -1 0 185 156)"/><circle cx="2.5" cy="2.5" r="2.5" transform="matrix(0 1 -1 0 197 156)"/><circle cx="2.5" cy="2.5" r="2.5" transform="matrix(0 1 -1 0 209 156)"/><circle cx="2.5" cy="2.5" r="2.5" transform="matrix(0 1 -1 0 221 156)"/><circle cx="2.5" cy="2.5" r="2.5" transform="matrix(0 1 -1 0 233 156)"/><circle cx="2.5" cy="2.5" r="2.5" transform="matrix(0 1 -1 0 245 156)"/><circle cx="2.5" cy="2.5" r="2.5" transform="matrix(0 1 -1 0 257 156)"/><circle cx="2.5" cy="2.5" r="2.5" transform="matrix(0 1 -1 0 269 156)"/><circle cx="2.5" cy="2.5" r="2.5" transform="matrix(0 1 -1 0 281 156)"/><circle cx="2.5" cy="2.5" r="2.5" transform="matrix(0 1 -1 0 293 156)"/><circle cx="2.5" cy="2.5" r="2.5" transform="matrix(0 1 -1 0 305 156)"/><circle cx="2.5" cy="2.5" r="2.5" transform="matrix(0 1 -1 0 317 156)"/><circle cx="2.5" cy="2.5" r="2.5" transform="matrix(0 1 -1 0 329 156)"/><circle cx="2.5" cy="2.5" r="2.5" transform="matrix(0 1 -1 0 341 156)"/><circle cx="2.5" cy="2.5" r="2.5" transform="matrix(0 1 -1 0 353 156)"/><circle cx="2.5" cy="2.5" r="2.5" transform="matrix(0 1 -1 0 365 156)"/><circle cx="2.5" cy="2.5" r="2.5" transform="matrix(0 1 -1 0 377 156)"/><circle cx="2.5" cy="2.5" r="2.5" transform="matrix(0 1 -1 0 389 156)"/><circle cx="2.5" cy="2.5" r="2.5" transform="matrix(0 1 -1 0 5 168)"/><circle cx="2.5" cy="2.5" r="2.5" transform="matrix(0 1 -1 0 17 168)"/><circle cx="2.5" cy="2.5" r="2.5" transform="matrix(0 1 -1 0 29 168)"/><circle cx="2.5" cy="2.5" r="2.5" transform="matrix(0 1 -1 0 41 168)"/><circle cx="2.5" cy="2.5" r="2.5" transform="matrix(0 1 -1 0 53 168)"/><circle cx="2.5" cy="2.5" r="2.5" transform="matrix(0 1 -1 0 65 168)"/><circle cx="2.5" cy="2.5" r="2.5" transform="matrix(0 1 -1 0 77 168)"/><circle cx="2.5" cy="2.5" r="2.5" transform="matrix(0 1 -1 0 89 168)"/><circle cx="2.5" cy="2.5" r="2.5" transform="matrix(0 1 -1 0 101 168)"/><circle cx="2.5" cy="2.5" r="2.5" transform="matrix(0 1 -1 0 113 168)"/><circle cx="2.5" cy="2.5" r="2.5" transform="matrix(0 1 -1 0 125 168)"/><circle cx="2.5" cy="2.5" r="2.5" transform="matrix(0 1 -1 0 137 168)"/><circle cx="2.5" cy="2.5" r="2.5" transform="matrix(0 1 -1 0 149 168)"/><circle cx="2.5" cy="2.5" r="2.5" transform="matrix(0 1 -1 0 161 168)"/><circle cx="2.5" cy="2.5" r="2.5" transform="matrix(0 1 -1 0 173 168)"/><circle cx="2.5" cy="2.5" r="2.5" transform="matrix(0 1 -1 0 185 168)"/><circle cx="2.5" cy="2.5" r="2.5" transform="matrix(0 1 -1 0 197 168)"/><circle cx="2.5" cy="2.5" r="2.5" transform="matrix(0 1 -1 0 209 168)"/><circle cx="2.5" cy="2.5" r="2.5" transform="matrix(0 1 -1 0 221 168)"/><circle cx="2.5" cy="2.5" r="2.5" transform="matrix(0 1 -1 0 233 168)"/><circle cx="2.5" cy="2.5" r="2.5" transform="matrix(0 1 -1 0 245 168)"/><circle cx="2.5" cy="2.5" r="2.5" transform="matrix(0 1 -1 0 257 168)"/><circle cx="2.5" cy="2.5" r="2.5" transform="matrix(0 1 -1 0 269 168)"/><circle cx="2.5" cy="2.5" r="2.5" transform="matrix(0 1 -1 0 281 168)"/><circle cx="2.5" cy="2.5" r="2.5" transform="matrix(0 1 -1 0 293 168)"/><circle cx="2.5" cy="2.5" r="2.5" transform="matrix(0 1 -1 0 305 168)"/><circle cx="2.5" cy="2.5" r="2.5" transform="matrix(0 1 -1 0 317 168)"/><circle cx="2.5" cy="2.5" r="2.5" transform="matrix(0 1 -1 0 329 168)"/><circle cx="2.5" cy="2.5" r="2.5" transform="matrix(0 1 -1 0 341 168)"/><circle cx="2.5" cy="2.5" r="2.5" transform="matrix(0 1 -1 0 353 168)"/><circle cx="2.5" cy="2.5" r="2.5" transform="matrix(0 1 -1 0 365 168)"/><circle cx="2.5" cy="2.5" r="2.5" transform="matrix(0 1 -1 0 377 168)"/><circle cx="2.5" cy="2.5" r="2.5" transform="matrix(0 1 -1 0 389 168)"/><circle cx="2.5" cy="2.5" r="2.5" transform="matrix(0 1 -1 0 5 180)"/><circle cx="2.5" cy="2.5" r="2.5" transform="matrix(0 1 -1 0 17 180)"/><circle cx="2.5" cy="2.5" r="2.5" transform="matrix(0 1 -1 0 29 180)"/><circle cx="2.5" cy="2.5" r="2.5" transform="matrix(0 1 -1 0 41 180)"/><circle cx="2.5" cy="2.5" r="2.5" transform="matrix(0 1 -1 0 53 180)"/><circle cx="2.5" cy="2.5" r="2.5" transform="matrix(0 1 -1 0 65 180)"/><circle cx="2.5" cy="2.5" r="2.5" transform="matrix(0 1 -1 0 77 180)"/><circle cx="2.5" cy="2.5" r="2.5" transform="matrix(0 1 -1 0 89 180)"/><circle cx="2.5" cy="2.5" r="2.5" transform="matrix(0 1 -1 0 101 180)"/><circle cx="2.5" cy="2.5" r="2.5" transform="matrix(0 1 -1 0 113 180)"/><circle cx="2.5" cy="2.5" r="2.5" transform="matrix(0 1 -1 0 125 180)"/><circle cx="2.5" cy="2.5" r="2.5" transform="matrix(0 1 -1 0 137 180)"/><circle cx="2.5" cy="2.5" r="2.5" transform="matrix(0 1 -1 0 149 180)"/><circle cx="2.5" cy="2.5" r="2.5" transform="matrix(0 1 -1 0 161 180)"/><circle cx="2.5" cy="2.5" r="2.5" transform="matrix(0 1 -1 0 173 180)"/><circle cx="2.5" cy="2.5" r="2.5" transform="matrix(0 1 -1 0 185 180)"/><circle cx="2.5" cy="2.5" r="2.5" transform="matrix(0 1 -1 0 197 180)"/><circle cx="2.5" cy="2.5" r="2.5" transform="matrix(0 1 -1 0 209 180)"/><circle cx="2.5" cy="2.5" r="2.5" transform="matrix(0 1 -1 0 221 180)"/><circle cx="2.5" cy="2.5" r="2.5" transform="matrix(0 1 -1 0 233 180)"/><circle cx="2.5" cy="2.5" r="2.5" transform="matrix(0 1 -1 0 245 180)"/><circle cx="2.5" cy="2.5" r="2.5" transform="matrix(0 1 -1 0 257 180)"/><circle cx="2.5" cy="2.5" r="2.5" transform="matrix(0 1 -1 0 269 180)"/><circle cx="2.5" cy="2.5" r="2.5" transform="matrix(0 1 -1 0 281 180)"/><circle cx="2.5" cy="2.5" r="2.5" transform="matrix(0 1 -1 0 293 180)"/><circle cx="2.5" cy="2.5" r="2.5" transform="matrix(0 1 -1 0 305 180)"/><circle cx="2.5" cy="2.5" r="2.5" transform="matrix(0 1 -1 0 317 180)"/><circle cx="2.5" cy="2.5" r="2.5" transform="matrix(0 1 -1 0 329 180)"/><circle cx="2.5" cy="2.5" r="2.5" transform="matrix(0 1 -1 0 341 180)"/><circle cx="2.5" cy="2.5" r="2.5" transform="matrix(0 1 -1 0 353 180)"/><circle cx="2.5" cy="2.5" r="2.5" transform="matrix(0 1 -1 0 365 180)"/><circle cx="2.5" cy="2.5" r="2.5" transform="matrix(0 1 -1 0 377 180)"/><circle cx="2.5" cy="2.5" r="2.5" transform="matrix(0 1 -1 0 389 180)"/><circle cx="2.5" cy="2.5" r="2.5" transform="matrix(0 1 -1 0 5 192)"/><circle cx="2.5" cy="2.5" r="2.5" transform="matrix(0 1 -1 0 17 192)"/><circle cx="2.5" cy="2.5" r="2.5" transform="matrix(0 1 -1 0 29 192)"/><circle cx="2.5" cy="2.5" r="2.5" transform="matrix(0 1 -1 0 41 192)"/><circle cx="2.5" cy="2.5" r="2.5" transform="matrix(0 1 -1 0 53 192)"/><circle cx="2.5" cy="2.5" r="2.5" transform="matrix(0 1 -1 0 65 192)"/><circle cx="2.5" cy="2.5" r="2.5" transform="matrix(0 1 -1 0 77 192)"/><circle cx="2.5" cy="2.5" r="2.5" transform="matrix(0 1 -1 0 89 192)"/><circle cx="2.5" cy="2.5" r="2.5" transform="matrix(0 1 -1 0 101 192)"/><circle cx="2.5" cy="2.5" r="2.5" transform="matrix(0 1 -1 0 113 192)"/><circle cx="2.5" cy="2.5" r="2.5" transform="matrix(0 1 -1 0 125 192)"/><circle cx="2.5" cy="2.5" r="2.5" transform="matrix(0 1 -1 0 137 192)"/><circle cx="2.5" cy="2.5" r="2.5" transform="matrix(0 1 -1 0 149 192)"/><circle cx="2.5" cy="2.5" r="2.5" transform="matrix(0 1 -1 0 161 192)"/><circle cx="2.5" cy="2.5" r="2.5" transform="matrix(0 1 -1 0 173 192)"/><circle cx="2.5" cy="2.5" r="2.5" transform="matrix(0 1 -1 0 185 192)"/><circle cx="2.5" cy="2.5" r="2.5" transform="matrix(0 1 -1 0 197 192)"/><circle cx="2.5" cy="2.5" r="2.5" transform="matrix(0 1 -1 0 209 192)"/><circle cx="2.5" cy="2.5" r="2.5" transform="matrix(0 1 -1 0 221 192)"/><circle cx="2.5" cy="2.5" r="2.5" transform="matrix(0 1 -1 0 233 192)"/><circle cx="2.5" cy="2.5" r="2.5" transform="matrix(0 1 -1 0 245 192)"/><circle cx="2.5" cy="2.5" r="2.5" transform="matrix(0 1 -1 0 257 192)"/><circle cx="2.5" cy="2.5" r="2.5" transform="matrix(0 1 -1 0 269 192)"/><circle cx="2.5" cy="2.5" r="2.5" transform="matrix(0 1 -1 0 281 192)"/><circle cx="2.5" cy="2.5" r="2.5" transform="matrix(0 1 -1 0 293 192)"/><circle cx="2.5" cy="2.5" r="2.5" transform="matrix(0 1 -1 0 305 192)"/><circle cx="2.5" cy="2.5" r="2.5" transform="matrix(0 1 -1 0 317 192)"/><circle cx="2.5" cy="2.5" r="2.5" transform="matrix(0 1 -1 0 329 192)"/><circle cx="2.5" cy="2.5" r="2.5" transform="matrix(0 1 -1 0 341 192)"/><circle cx="2.5" cy="2.5" r="2.5" transform="matrix(0 1 -1 0 353 192)"/><circle cx="2.5" cy="2.5" r="2.5" transform="matrix(0 1 -1 0 365 192)"/><circle cx="2.5" cy="2.5" r="2.5" transform="matrix(0 1 -1 0 377 192)"/><circle cx="2.5" cy="2.5" r="2.5" transform="matrix(0 1 -1 0 389 192)"/><circle cx="2.5" cy="2.5" r="2.5" transform="matrix(0 1 -1 0 5 204)"/><circle cx="2.5" cy="2.5" r="2.5" transform="matrix(0 1 -1 0 17 204)"/><circle cx="2.5" cy="2.5" r="2.5" transform="matrix(0 1 -1 0 29 204)"/><circle cx="2.5" cy="2.5" r="2.5" transform="matrix(0 1 -1 0 41 204)"/><circle cx="2.5" cy="2.5" r="2.5" transform="matrix(0 1 -1 0 53 204)"/><circle cx="2.5" cy="2.5" r="2.5" transform="matrix(0 1 -1 0 65 204)"/><circle cx="2.5" cy="2.5" r="2.5" transform="matrix(0 1 -1 0 77 204)"/><circle cx="2.5" cy="2.5" r="2.5" transform="matrix(0 1 -1 0 89 204)"/><circle cx="2.5" cy="2.5" r="2.5" transform="matrix(0 1 -1 0 101 204)"/><circle cx="2.5" cy="2.5" r="2.5" transform="matrix(0 1 -1 0 113 204)"/><circle cx="2.5" cy="2.5" r="2.5" transform="matrix(0 1 -1 0 125 204)"/><circle cx="2.5" cy="2.5" r="2.5" transform="matrix(0 1 -1 0 137 204)"/><circle cx="2.5" cy="2.5" r="2.5" transform="matrix(0 1 -1 0 149 204)"/><circle cx="2.5" cy="2.5" r="2.5" transform="matrix(0 1 -1 0 161 204)"/><circle cx="2.5" cy="2.5" r="2.5" transform="matrix(0 1 -1 0 173 204)"/><circle cx="2.5" cy="2.5" r="2.5" transform="matrix(0 1 -1 0 185 204)"/><circle cx="2.5" cy="2.5" r="2.5" transform="matrix(0 1 -1 0 197 204)"/><circle cx="2.5" cy="2.5" r="2.5" transform="matrix(0 1 -1 0 209 204)"/><circle cx="2.5" cy="2.5" r="2.5" transform="matrix(0 1 -1 0 221 204)"/><circle cx="2.5" cy="2.5" r="2.5" transform="matrix(0 1 -1 0 233 204)"/><circle cx="2.5" cy="2.5" r="2.5" transform="matrix(0 1 -1 0 245 204)"/><circle cx="2.5" cy="2.5" r="2.5" transform="matrix(0 1 -1 0 257 204)"/><circle cx="2.5" cy="2.5" r="2.5" transform="matrix(0 1 -1 0 269 204)"/><circle cx="2.5" cy="2.5" r="2.5" transform="matrix(0 1 -1 0 281 204)"/><circle cx="2.5" cy="2.5" r="2.5" transform="matrix(0 1 -1 0 293 204)"/><circle cx="2.5" cy="2.5" r="2.5" transform="matrix(0 1 -1 0 305 204)"/><circle cx="2.5" cy="2.5" r="2.5" transform="matrix(0 1 -1 0 317 204)"/><circle cx="2.5" cy="2.5" r="2.5" transform="matrix(0 1 -1 0 329 204)"/><circle cx="2.5" cy="2.5" r="2.5" transform="matrix(0 1 -1 0 341 204)"/><circle cx="2.5" cy="2.5" r="2.5" transform="matrix(0 1 -1 0 353 204)"/><circle cx="2.5" cy="2.5" r="2.5" transform="matrix(0 1 -1 0 365 204)"/><circle cx="2.5" cy="2.5" r="2.5" transform="matrix(0 1 -1 0 377 204)"/><circle cx="2.5" cy="2.5" r="2.5" transform="matrix(0 1 -1 0 389 204)"/><circle cx="2.5" cy="2.5" r="2.5" transform="matrix(0 1 -1 0 5 216)"/><circle cx="2.5" cy="2.5" r="2.5" transform="matrix(0 1 -1 0 17 216)"/><circle cx="2.5" cy="2.5" r="2.5" transform="matrix(0 1 -1 0 29 216)"/><circle cx="2.5" cy="2.5" r="2.5" transform="matrix(0 1 -1 0 41 216)"/><circle cx="2.5" cy="2.5" r="2.5" transform="matrix(0 1 -1 0 53 216)"/><circle cx="2.5" cy="2.5" r="2.5" transform="matrix(0 1 -1 0 65 216)"/><circle cx="2.5" cy="2.5" r="2.5" transform="matrix(0 1 -1 0 77 216)"/><circle cx="2.5" cy="2.5" r="2.5" transform="matrix(0 1 -1 0 89 216)"/><circle cx="2.5" cy="2.5" r="2.5" transform="matrix(0 1 -1 0 101 216)"/><circle cx="2.5" cy="2.5" r="2.5" transform="matrix(0 1 -1 0 113 216)"/><circle cx="2.5" cy="2.5" r="2.5" transform="matrix(0 1 -1 0 125 216)"/><circle cx="2.5" cy="2.5" r="2.5" transform="matrix(0 1 -1 0 137 216)"/><circle cx="2.5" cy="2.5" r="2.5" transform="matrix(0 1 -1 0 149 216)"/><circle cx="2.5" cy="2.5" r="2.5" transform="matrix(0 1 -1 0 161 216)"/><circle cx="2.5" cy="2.5" r="2.5" transform="matrix(0 1 -1 0 173 216)"/><circle cx="2.5" cy="2.5" r="2.5" transform="matrix(0 1 -1 0 185 216)"/><circle cx="2.5" cy="2.5" r="2.5" transform="matrix(0 1 -1 0 197 216)"/><circle cx="2.5" cy="2.5" r="2.5" transform="matrix(0 1 -1 0 209 216)"/><circle cx="2.5" cy="2.5" r="2.5" transform="matrix(0 1 -1 0 221 216)"/><circle cx="2.5" cy="2.5" r="2.5" transform="matrix(0 1 -1 0 233 216)"/><circle cx="2.5" cy="2.5" r="2.5" transform="matrix(0 1 -1 0 245 216)"/><circle cx="2.5" cy="2.5" r="2.5" transform="matrix(0 1 -1 0 257 216)"/><circle cx="2.5" cy="2.5" r="2.5" transform="matrix(0 1 -1 0 269 216)"/><circle cx="2.5" cy="2.5" r="2.5" transform="matrix(0 1 -1 0 281 216)"/><circle cx="2.5" cy="2.5" r="2.5" transform="matrix(0 1 -1 0 293 216)"/><circle cx="2.5" cy="2.5" r="2.5" transform="matrix(0 1 -1 0 305 216)"/><circle cx="2.5" cy="2.5" r="2.5" transform="matrix(0 1 -1 0 317 216)"/><circle cx="2.5" cy="2.5" r="2.5" transform="matrix(0 1 -1 0 329 216)"/><circle cx="2.5" cy="2.5" r="2.5" transform="matrix(0 1 -1 0 341 216)"/><circle cx="2.5" cy="2.5" r="2.5" transform="matrix(0 1 -1 0 353 216)"/><circle cx="2.5" cy="2.5" r="2.5" transform="matrix(0 1 -1 0 365 216)"/><circle cx="2.5" cy="2.5" r="2.5" transform="matrix(0 1 -1 0 377 216)"/><circle cx="2.5" cy="2.5" r="2.5" transform="matrix(0 1 -1 0 389 216)"/><circle cx="2.5" cy="2.5" r="2.5" transform="matrix(0 1 -1 0 5 228)"/><circle cx="2.5" cy="2.5" r="2.5" transform="matrix(0 1 -1 0 17 228)"/><circle cx="2.5" cy="2.5" r="2.5" transform="matrix(0 1 -1 0 29 228)"/><circle cx="2.5" cy="2.5" r="2.5" transform="matrix(0 1 -1 0 41 228)"/><circle cx="2.5" cy="2.5" r="2.5" transform="matrix(0 1 -1 0 53 228)"/><circle cx="2.5" cy="2.5" r="2.5" transform="matrix(0 1 -1 0 65 228)"/><circle cx="2.5" cy="2.5" r="2.5" transform="matrix(0 1 -1 0 77 228)"/><circle cx="2.5" cy="2.5" r="2.5" transform="matrix(0 1 -1 0 89 228)"/><circle cx="2.5" cy="2.5" r="2.5" transform="matrix(0 1 -1 0 101 228)"/><circle cx="2.5" cy="2.5" r="2.5" transform="matrix(0 1 -1 0 113 228)"/><circle cx="2.5" cy="2.5" r="2.5" transform="matrix(0 1 -1 0 125 228)"/><circle cx="2.5" cy="2.5" r="2.5" transform="matrix(0 1 -1 0 137 228)"/><circle cx="2.5" cy="2.5" r="2.5" transform="matrix(0 1 -1 0 149 228)"/><circle cx="2.5" cy="2.5" r="2.5" transform="matrix(0 1 -1 0 161 228)"/><circle cx="2.5" cy="2.5" r="2.5" transform="matrix(0 1 -1 0 173 228)"/><circle cx="2.5" cy="2.5" r="2.5" transform="matrix(0 1 -1 0 185 228)"/><circle cx="2.5" cy="2.5" r="2.5" transform="matrix(0 1 -1 0 197 228)"/><circle cx="2.5" cy="2.5" r="2.5" transform="matrix(0 1 -1 0 209 228)"/><circle cx="2.5" cy="2.5" r="2.5" transform="matrix(0 1 -1 0 221 228)"/><circle cx="2.5" cy="2.5" r="2.5" transform="matrix(0 1 -1 0 233 228)"/><circle cx="2.5" cy="2.5" r="2.5" transform="matrix(0 1 -1 0 245 228)"/><circle cx="2.5" cy="2.5" r="2.5" transform="matrix(0 1 -1 0 257 228)"/><circle cx="2.5" cy="2.5" r="2.5" transform="matrix(0 1 -1 0 269 228)"/><circle cx="2.5" cy="2.5" r="2.5" transform="matrix(0 1 -1 0 281 228)"/><circle cx="2.5" cy="2.5" r="2.5" transform="matrix(0 1 -1 0 293 228)"/><circle cx="2.5" cy="2.5" r="2.5" transform="matrix(0 1 -1 0 305 228)"/><circle cx="2.5" cy="2.5" r="2.5" transform="matrix(0 1 -1 0 317 228)"/><circle cx="2.5" cy="2.5" r="2.5" transform="matrix(0 1 -1 0 329 228)"/><circle cx="2.5" cy="2.5" r="2.5" transform="matrix(0 1 -1 0 341 228)"/><circle cx="2.5" cy="2.5" r="2.5" transform="matrix(0 1 -1 0 353 228)"/><circle cx="2.5" cy="2.5" r="2.5" transform="matrix(0 1 -1 0 365 228)"/><circle cx="2.5" cy="2.5" r="2.5" transform="matrix(0 1 -1 0 377 228)"/><circle cx="2.5" cy="2.5" r="2.5" transform="matrix(0 1 -1 0 389 228)"/><circle cx="2.5" cy="2.5" r="2.5" transform="matrix(0 1 -1 0 5 240)"/><circle cx="2.5" cy="2.5" r="2.5" transform="matrix(0 1 -1 0 17 240)"/><circle cx="2.5" cy="2.5" r="2.5" transform="matrix(0 1 -1 0 29 240)"/><circle cx="2.5" cy="2.5" r="2.5" transform="matrix(0 1 -1 0 41 240)"/><circle cx="2.5" cy="2.5" r="2.5" transform="matrix(0 1 -1 0 53 240)"/><circle cx="2.5" cy="2.5" r="2.5" transform="matrix(0 1 -1 0 65 240)"/><circle cx="2.5" cy="2.5" r="2.5" transform="matrix(0 1 -1 0 77 240)"/><circle cx="2.5" cy="2.5" r="2.5" transform="matrix(0 1 -1 0 89 240)"/><circle cx="2.5" cy="2.5" r="2.5" transform="matrix(0 1 -1 0 101 240)"/><circle cx="2.5" cy="2.5" r="2.5" transform="matrix(0 1 -1 0 113 240)"/><circle cx="2.5" cy="2.5" r="2.5" transform="matrix(0 1 -1 0 125 240)"/><circle cx="2.5" cy="2.5" r="2.5" transform="matrix(0 1 -1 0 137 240)"/><circle cx="2.5" cy="2.5" r="2.5" transform="matrix(0 1 -1 0 149 240)"/><circle cx="2.5" cy="2.5" r="2.5" transform="matrix(0 1 -1 0 161 240)"/><circle cx="2.5" cy="2.5" r="2.5" transform="matrix(0 1 -1 0 173 240)"/><circle cx="2.5" cy="2.5" r="2.5" transform="matrix(0 1 -1 0 185 240)"/><circle cx="2.5" cy="2.5" r="2.5" transform="matrix(0 1 -1 0 197 240)"/><circle cx="2.5" cy="2.5" r="2.5" transform="matrix(0 1 -1 0 209 240)"/><circle cx="2.5" cy="2.5" r="2.5" transform="matrix(0 1 -1 0 221 240)"/><circle cx="2.5" cy="2.5" r="2.5" transform="matrix(0 1 -1 0 233 240)"/><circle cx="2.5" cy="2.5" r="2.5" transform="matrix(0 1 -1 0 245 240)"/><circle cx="2.5" cy="2.5" r="2.5" transform="matrix(0 1 -1 0 257 240)"/><circle cx="2.5" cy="2.5" r="2.5" transform="matrix(0 1 -1 0 269 240)"/><circle cx="2.5" cy="2.5" r="2.5" transform="matrix(0 1 -1 0 281 240)"/><circle cx="2.5" cy="2.5" r="2.5" transform="matrix(0 1 -1 0 293 240)"/><circle cx="2.5" cy="2.5" r="2.5" transform="matrix(0 1 -1 0 305 240)"/><circle cx="2.5" cy="2.5" r="2.5" transform="matrix(0 1 -1 0 317 240)"/><circle cx="2.5" cy="2.5" r="2.5" transform="matrix(0 1 -1 0 329 240)"/><circle cx="2.5" cy="2.5" r="2.5" transform="matrix(0 1 -1 0 341 240)"/><circle cx="2.5" cy="2.5" r="2.5" transform="matrix(0 1 -1 0 353 240)"/><circle cx="2.5" cy="2.5" r="2.5" transform="matrix(0 1 -1 0 365 240)"/><circle cx="2.5" cy="2.5" r="2.5" transform="matrix(0 1 -1 0 377 240)"/><circle cx="2.5" cy="2.5" r="2.5" transform="matrix(0 1 -1 0 389 240)"/><circle cx="2.5" cy="2.5" r="2.5" transform="matrix(0 1 -1 0 5 252)"/><circle cx="2.5" cy="2.5" r="2.5" transform="matrix(0 1 -1 0 17 252)"/><circle cx="2.5" cy="2.5" r="2.5" transform="matrix(0 1 -1 0 29 252)"/><circle cx="2.5" cy="2.5" r="2.5" transform="matrix(0 1 -1 0 41 252)"/><circle cx="2.5" cy="2.5" r="2.5" transform="matrix(0 1 -1 0 53 252)"/><circle cx="2.5" cy="2.5" r="2.5" transform="matrix(0 1 -1 0 65 252)"/><circle cx="2.5" cy="2.5" r="2.5" transform="matrix(0 1 -1 0 77 252)"/><circle cx="2.5" cy="2.5" r="2.5" transform="matrix(0 1 -1 0 89 252)"/><circle cx="2.5" cy="2.5" r="2.5" transform="matrix(0 1 -1 0 101 252)"/><circle cx="2.5" cy="2.5" r="2.5" transform="matrix(0 1 -1 0 113 252)"/><circle cx="2.5" cy="2.5" r="2.5" transform="matrix(0 1 -1 0 125 252)"/><circle cx="2.5" cy="2.5" r="2.5" transform="matrix(0 1 -1 0 137 252)"/><circle cx="2.5" cy="2.5" r="2.5" transform="matrix(0 1 -1 0 149 252)"/><circle cx="2.5" cy="2.5" r="2.5" transform="matrix(0 1 -1 0 161 252)"/><circle cx="2.5" cy="2.5" r="2.5" transform="matrix(0 1 -1 0 173 252)"/><circle cx="2.5" cy="2.5" r="2.5" transform="matrix(0 1 -1 0 185 252)"/><circle cx="2.5" cy="2.5" r="2.5" transform="matrix(0 1 -1 0 197 252)"/><circle cx="2.5" cy="2.5" r="2.5" transform="matrix(0 1 -1 0 209 252)"/><circle cx="2.5" cy="2.5" r="2.5" transform="matrix(0 1 -1 0 221 252)"/><circle cx="2.5" cy="2.5" r="2.5" transform="matrix(0 1 -1 0 233 252)"/><circle cx="2.5" cy="2.5" r="2.5" transform="matrix(0 1 -1 0 245 252)"/><circle cx="2.5" cy="2.5" r="2.5" transform="matrix(0 1 -1 0 257 252)"/><circle cx="2.5" cy="2.5" r="2.5" transform="matrix(0 1 -1 0 269 252)"/><circle cx="2.5" cy="2.5" r="2.5" transform="matrix(0 1 -1 0 281 252)"/><circle cx="2.5" cy="2.5" r="2.5" transform="matrix(0 1 -1 0 293 252)"/><circle cx="2.5" cy="2.5" r="2.5" transform="matrix(0 1 -1 0 305 252)"/><circle cx="2.5" cy="2.5" r="2.5" transform="matrix(0 1 -1 0 317 252)"/><circle cx="2.5" cy="2.5" r="2.5" transform="matrix(0 1 -1 0 329 252)"/><circle cx="2.5" cy="2.5" r="2.5" transform="matrix(0 1 -1 0 341 252)"/><circle cx="2.5" cy="2.5" r="2.5" transform="matrix(0 1 -1 0 353 252)"/><circle cx="2.5" cy="2.5" r="2.5" transform="matrix(0 1 -1 0 365 252)"/><circle cx="2.5" cy="2.5" r="2.5" transform="matrix(0 1 -1 0 377 252)"/><circle cx="2.5" cy="2.5" r="2.5" transform="matrix(0 1 -1 0 389 252)"/><circle cx="2.5" cy="2.5" r="2.5" transform="matrix(0 1 -1 0 5 264)"/><circle cx="2.5" cy="2.5" r="2.5" transform="matrix(0 1 -1 0 17 264)"/><circle cx="2.5" cy="2.5" r="2.5" transform="matrix(0 1 -1 0 29 264)"/><circle cx="2.5" cy="2.5" r="2.5" transform="matrix(0 1 -1 0 41 264)"/><circle cx="2.5" cy="2.5" r="2.5" transform="matrix(0 1 -1 0 53 264)"/><circle cx="2.5" cy="2.5" r="2.5" transform="matrix(0 1 -1 0 65 264)"/><circle cx="2.5" cy="2.5" r="2.5" transform="matrix(0 1 -1 0 77 264)"/><circle cx="2.5" cy="2.5" r="2.5" transform="matrix(0 1 -1 0 89 264)"/><circle cx="2.5" cy="2.5" r="2.5" transform="matrix(0 1 -1 0 101 264)"/><circle cx="2.5" cy="2.5" r="2.5" transform="matrix(0 1 -1 0 113 264)"/><circle cx="2.5" cy="2.5" r="2.5" transform="matrix(0 1 -1 0 125 264)"/><circle cx="2.5" cy="2.5" r="2.5" transform="matrix(0 1 -1 0 137 264)"/><circle cx="2.5" cy="2.5" r="2.5" transform="matrix(0 1 -1 0 149 264)"/><circle cx="2.5" cy="2.5" r="2.5" transform="matrix(0 1 -1 0 161 264)"/><circle cx="2.5" cy="2.5" r="2.5" transform="matrix(0 1 -1 0 173 264)"/><circle cx="2.5" cy="2.5" r="2.5" transform="matrix(0 1 -1 0 185 264)"/><circle cx="2.5" cy="2.5" r="2.5" transform="matrix(0 1 -1 0 197 264)"/><circle cx="2.5" cy="2.5" r="2.5" transform="matrix(0 1 -1 0 209 264)"/><circle cx="2.5" cy="2.5" r="2.5" transform="matrix(0 1 -1 0 221 264)"/><circle cx="2.5" cy="2.5" r="2.5" transform="matrix(0 1 -1 0 233 264)"/><circle cx="2.5" cy="2.5" r="2.5" transform="matrix(0 1 -1 0 245 264)"/><circle cx="2.5" cy="2.5" r="2.5" transform="matrix(0 1 -1 0 257 264)"/><circle cx="2.5" cy="2.5" r="2.5" transform="matrix(0 1 -1 0 269 264)"/><circle cx="2.5" cy="2.5" r="2.5" transform="matrix(0 1 -1 0 281 264)"/><circle cx="2.5" cy="2.5" r="2.5" transform="matrix(0 1 -1 0 293 264)"/><circle cx="2.5" cy="2.5" r="2.5" transform="matrix(0 1 -1 0 305 264)"/><circle cx="2.5" cy="2.5" r="2.5" transform="matrix(0 1 -1 0 317 264)"/><circle cx="2.5" cy="2.5" r="2.5" transform="matrix(0 1 -1 0 329 264)"/><circle cx="2.5" cy="2.5" r="2.5" transform="matrix(0 1 -1 0 341 264)"/><circle cx="2.5" cy="2.5" r="2.5" transform="matrix(0 1 -1 0 353 264)"/><circle cx="2.5" cy="2.5" r="2.5" transform="matrix(0 1 -1 0 365 264)"/><circle cx="2.5" cy="2.5" r="2.5" transform="matrix(0 1 -1 0 377 264)"/><circle cx="2.5" cy="2.5" r="2.5" transform="matrix(0 1 -1 0 389 264)"/><circle cx="2.5" cy="2.5" r="2.5" transform="matrix(0 1 -1 0 5 276)"/><circle cx="2.5" cy="2.5" r="2.5" transform="matrix(0 1 -1 0 17 276)"/><circle cx="2.5" cy="2.5" r="2.5" transform="matrix(0 1 -1 0 29 276)"/><circle cx="2.5" cy="2.5" r="2.5" transform="matrix(0 1 -1 0 41 276)"/><circle cx="2.5" cy="2.5" r="2.5" transform="matrix(0 1 -1 0 53 276)"/><circle cx="2.5" cy="2.5" r="2.5" transform="matrix(0 1 -1 0 65 276)"/><circle cx="2.5" cy="2.5" r="2.5" transform="matrix(0 1 -1 0 77 276)"/><circle cx="2.5" cy="2.5" r="2.5" transform="matrix(0 1 -1 0 89 276)"/><circle cx="2.5" cy="2.5" r="2.5" transform="matrix(0 1 -1 0 101 276)"/><circle cx="2.5" cy="2.5" r="2.5" transform="matrix(0 1 -1 0 113 276)"/><circle cx="2.5" cy="2.5" r="2.5" transform="matrix(0 1 -1 0 125 276)"/><circle cx="2.5" cy="2.5" r="2.5" transform="matrix(0 1 -1 0 137 276)"/><circle cx="2.5" cy="2.5" r="2.5" transform="matrix(0 1 -1 0 149 276)"/><circle cx="2.5" cy="2.5" r="2.5" transform="matrix(0 1 -1 0 161 276)"/><circle cx="2.5" cy="2.5" r="2.5" transform="matrix(0 1 -1 0 173 276)"/><circle cx="2.5" cy="2.5" r="2.5" transform="matrix(0 1 -1 0 185 276)"/><circle cx="2.5" cy="2.5" r="2.5" transform="matrix(0 1 -1 0 197 276)"/><circle cx="2.5" cy="2.5" r="2.5" transform="matrix(0 1 -1 0 209 276)"/><circle cx="2.5" cy="2.5" r="2.5" transform="matrix(0 1 -1 0 221 276)"/><circle cx="2.5" cy="2.5" r="2.5" transform="matrix(0 1 -1 0 233 276)"/><circle cx="2.5" cy="2.5" r="2.5" transform="matrix(0 1 -1 0 245 276)"/><circle cx="2.5" cy="2.5" r="2.5" transform="matrix(0 1 -1 0 257 276)"/><circle cx="2.5" cy="2.5" r="2.5" transform="matrix(0 1 -1 0 269 276)"/><circle cx="2.5" cy="2.5" r="2.5" transform="matrix(0 1 -1 0 281 276)"/><circle cx="2.5" cy="2.5" r="2.5" transform="matrix(0 1 -1 0 293 276)"/><circle cx="2.5" cy="2.5" r="2.5" transform="matrix(0 1 -1 0 305 276)"/><circle cx="2.5" cy="2.5" r="2.5" transform="matrix(0 1 -1 0 317 276)"/><circle cx="2.5" cy="2.5" r="2.5" transform="matrix(0 1 -1 0 329 276)"/><circle cx="2.5" cy="2.5" r="2.5" transform="matrix(0 1 -1 0 341 276)"/><circle cx="2.5" cy="2.5" r="2.5" transform="matrix(0 1 -1 0 353 276)"/><circle cx="2.5" cy="2.5" r="2.5" transform="matrix(0 1 -1 0 365 276)"/><circle cx="2.5" cy="2.5" r="2.5" transform="matrix(0 1 -1 0 377 276)"/><circle cx="2.5" cy="2.5" r="2.5" transform="matrix(0 1 -1 0 389 276)"/><circle cx="2.5" cy="2.5" r="2.5" transform="matrix(0 1 -1 0 5 288)"/><circle cx="2.5" cy="2.5" r="2.5" transform="matrix(0 1 -1 0 17 288)"/><circle cx="2.5" cy="2.5" r="2.5" transform="matrix(0 1 -1 0 29 288)"/><circle cx="2.5" cy="2.5" r="2.5" transform="matrix(0 1 -1 0 41 288)"/><circle cx="2.5" cy="2.5" r="2.5" transform="matrix(0 1 -1 0 53 288)"/><circle cx="2.5" cy="2.5" r="2.5" transform="matrix(0 1 -1 0 65 288)"/><circle cx="2.5" cy="2.5" r="2.5" transform="matrix(0 1 -1 0 77 288)"/><circle cx="2.5" cy="2.5" r="2.5" transform="matrix(0 1 -1 0 89 288)"/><circle cx="2.5" cy="2.5" r="2.5" transform="matrix(0 1 -1 0 101 288)"/><circle cx="2.5" cy="2.5" r="2.5" transform="matrix(0 1 -1 0 113 288)"/><circle cx="2.5" cy="2.5" r="2.5" transform="matrix(0 1 -1 0 125 288)"/><circle cx="2.5" cy="2.5" r="2.5" transform="matrix(0 1 -1 0 137 288)"/><circle cx="2.5" cy="2.5" r="2.5" transform="matrix(0 1 -1 0 149 288)"/><circle cx="2.5" cy="2.5" r="2.5" transform="matrix(0 1 -1 0 161 288)"/><circle cx="2.5" cy="2.5" r="2.5" transform="matrix(0 1 -1 0 173 288)"/><circle cx="2.5" cy="2.5" r="2.5" transform="matrix(0 1 -1 0 185 288)"/><circle cx="2.5" cy="2.5" r="2.5" transform="matrix(0 1 -1 0 197 288)"/><circle cx="2.5" cy="2.5" r="2.5" transform="matrix(0 1 -1 0 209 288)"/><circle cx="2.5" cy="2.5" r="2.5" transform="matrix(0 1 -1 0 221 288)"/><circle cx="2.5" cy="2.5" r="2.5" transform="matrix(0 1 -1 0 233 288)"/><circle cx="2.5" cy="2.5" r="2.5" transform="matrix(0 1 -1 0 245 288)"/><circle cx="2.5" cy="2.5" r="2.5" transform="matrix(0 1 -1 0 257 288)"/><circle cx="2.5" cy="2.5" r="2.5" transform="matrix(0 1 -1 0 269 288)"/><circle cx="2.5" cy="2.5" r="2.5" transform="matrix(0 1 -1 0 281 288)"/><circle cx="2.5" cy="2.5" r="2.5" transform="matrix(0 1 -1 0 293 288)"/><circle cx="2.5" cy="2.5" r="2.5" transform="matrix(0 1 -1 0 305 288)"/><circle cx="2.5" cy="2.5" r="2.5" transform="matrix(0 1 -1 0 317 288)"/><circle cx="2.5" cy="2.5" r="2.5" transform="matrix(0 1 -1 0 329 288)"/><circle cx="2.5" cy="2.5" r="2.5" transform="matrix(0 1 -1 0 341 288)"/><circle cx="2.5" cy="2.5" r="2.5" transform="matrix(0 1 -1 0 353 288)"/><circle cx="2.5" cy="2.5" r="2.5" transform="matrix(0 1 -1 0 365 288)"/><circle cx="2.5" cy="2.5" r="2.5" transform="matrix(0 1 -1 0 377 288)"/><circle cx="2.5" cy="2.5" r="2.5" transform="matrix(0 1 -1 0 389 288)"/><circle cx="2.5" cy="2.5" r="2.5" transform="matrix(0 1 -1 0 5 300)"/><circle cx="2.5" cy="2.5" r="2.5" transform="matrix(0 1 -1 0 17 300)"/><circle cx="2.5" cy="2.5" r="2.5" transform="matrix(0 1 -1 0 29 300)"/><circle cx="2.5" cy="2.5" r="2.5" transform="matrix(0 1 -1 0 41 300)"/><circle cx="2.5" cy="2.5" r="2.5" transform="matrix(0 1 -1 0 53 300)"/><circle cx="2.5" cy="2.5" r="2.5" transform="matrix(0 1 -1 0 65 300)"/><circle cx="2.5" cy="2.5" r="2.5" transform="matrix(0 1 -1 0 77 300)"/><circle cx="2.5" cy="2.5" r="2.5" transform="matrix(0 1 -1 0 89 300)"/><circle cx="2.5" cy="2.5" r="2.5" transform="matrix(0 1 -1 0 101 300)"/><circle cx="2.5" cy="2.5" r="2.5" transform="matrix(0 1 -1 0 113 300)"/><circle cx="2.5" cy="2.5" r="2.5" transform="matrix(0 1 -1 0 125 300)"/><circle cx="2.5" cy="2.5" r="2.5" transform="matrix(0 1 -1 0 137 300)"/><circle cx="2.5" cy="2.5" r="2.5" transform="matrix(0 1 -1 0 149 300)"/><circle cx="2.5" cy="2.5" r="2.5" transform="matrix(0 1 -1 0 161 300)"/><circle cx="2.5" cy="2.5" r="2.5" transform="matrix(0 1 -1 0 173 300)"/><circle cx="2.5" cy="2.5" r="2.5" transform="matrix(0 1 -1 0 185 300)"/><circle cx="2.5" cy="2.5" r="2.5" transform="matrix(0 1 -1 0 197 300)"/><circle cx="2.5" cy="2.5" r="2.5" transform="matrix(0 1 -1 0 209 300)"/><circle cx="2.5" cy="2.5" r="2.5" transform="matrix(0 1 -1 0 221 300)"/><circle cx="2.5" cy="2.5" r="2.5" transform="matrix(0 1 -1 0 233 300)"/><circle cx="2.5" cy="2.5" r="2.5" transform="matrix(0 1 -1 0 245 300)"/><circle cx="2.5" cy="2.5" r="2.5" transform="matrix(0 1 -1 0 257 300)"/><circle cx="2.5" cy="2.5" r="2.5" transform="matrix(0 1 -1 0 269 300)"/><circle cx="2.5" cy="2.5" r="2.5" transform="matrix(0 1 -1 0 281 300)"/><circle cx="2.5" cy="2.5" r="2.5" transform="matrix(0 1 -1 0 293 300)"/><circle cx="2.5" cy="2.5" r="2.5" transform="matrix(0 1 -1 0 305 300)"/><circle cx="2.5" cy="2.5" r="2.5" transform="matrix(0 1 -1 0 317 300)"/><circle cx="2.5" cy="2.5" r="2.5" transform="matrix(0 1 -1 0 329 300)"/><circle cx="2.5" cy="2.5" r="2.5" transform="matrix(0 1 -1 0 341 300)"/><circle cx="2.5" cy="2.5" r="2.5" transform="matrix(0 1 -1 0 353 300)"/><circle cx="2.5" cy="2.5" r="2.5" transform="matrix(0 1 -1 0 365 300)"/><circle cx="2.5" cy="2.5" r="2.5" transform="matrix(0 1 -1 0 377 300)"/><circle cx="2.5" cy="2.5" r="2.5" transform="matrix(0 1 -1 0 389 300)"/></g></svg>